<?xml version="1.0" standalone="no"?>
<!DOCTYPE svg PUBLIC "-//W3C//DTD SVG 20010904//EN"
 "http://www.w3.org/TR/2001/REC-SVG-20010904/DTD/svg10.dtd">
<svg version="1.0" xmlns="http://www.w3.org/2000/svg"
 width="16.000000pt" height="16.000000pt" viewBox="0 0 16.000000 16.000000"
 preserveAspectRatio="xMidYMid meet">

<g transform="translate(0.000000,16.000000) scale(0.100000,-0.100000)"
fill="#000000" stroke="none">
<path d="M40 80 c0 -29 4 -40 15 -40 8 0 15 8 15 17 0 15 2 14 14 -3 18 -24
31 -13 17 14 -7 13 -7 22 1 30 7 7 8 15 4 19 -4 5 -14 -1 -22 -11 -12 -17 -14
-18 -14 -3 0 9 -7 17 -15 17 -11 0 -15 -11 -15 -40z"/>
</g>
</svg>
